<svg viewBox="0 0 32 32" xml:space="preserve" xmlns="http://www.w3.org/2000/svg" enable-background="new 0 0 32 32"><path d="M27.67 14.65a13.33 13.33 0 0 0-2.09-4.81l.27-.27c.5.27 1.07.43 1.65.43 1.93 0 3.5-1.57 3.5-3.5 0-1.46-.91-2.75-2.24-3.26A3.498 3.498 0 0 0 25.5 1C23.57 1 22 2.57 22 4.5c0 .58.16 1.15.43 1.65l-.26.26A13.46 13.46 0 0 0 14.5 4C7.06 4 1 10.06 1 17.5c0 1.74.34 3.42.99 5.02-.6.46-.99 1.17-.99 1.98A2.5 2.5 0 0 0 3.5 27h1.09l2.54 2.54c.94.94 2.19 1.46 3.53 1.46h10.69c1.34 0 2.59-.52 3.54-1.46L27.41 27h1.09a2.5 2.5 0 0 0 2.5-2.5 2.5 2.5 0 0 0-.68-1.71c.45-.85.68-1.8.68-2.79 0-2.28-1.32-4.35-3.33-5.35zM14.5 6c2.22 0 4.39.65 6.24 1.85l-.88.88C18.99 8.25 18.02 8 17 8c-3.31 0-6 2.69-6 6 0 .55.45 1 1 1s1-.45 1-1c0-2.21 1.79-4 4-4 .47 0 .92.08 1.35.24l-.06.06a.996.996 0 0 0 0 1.41c.2.19.45.29.71.29s.51-.1.71-.29l4.73-4.73c.06-.06.09-.13.13-.2.03-.05.07-.08.09-.13.03-.07.03-.14.04-.21.01-.06.03-.11.03-.17 0-.07-.02-.13-.04-.2-.01-.06-.01-.12-.04-.18-.02-.06-.07-.1-.1-.15-.04-.06-.07-.12-.12-.18-.27-.28-.43-.66-.43-1.06 0-.83.67-1.5 1.5-1.5.72 0 1.34.52 1.48 1.23v.01c.02.08.05.14.09.22.02.05.03.1.06.15.02.03.05.04.07.07.06.07.12.15.2.2l.06.03c.09.05.19.1.3.12h.01a1.498 1.498 0 1 1-1.33 2.53c-.04-.04-.08-.05-.13-.08a.959.959 0 0 0-.58-.21c-.21 0-.4.08-.58.21-.04.03-.09.05-.13.08l-4.73 4.73a.996.996 0 0 0 0 1.41c.2.2.45.3.71.3 0 .87-.28 1.7-.81 2.41-.23.3-.49.56-.79.79-.44.33-.53.96-.19 1.4.2.26.5.4.8.4.21 0 .42-.07.6-.2.44-.33.84-.73 1.18-1.18A6.039 6.039 0 0 0 23 14c0-.47-.08-.94-.19-1.4l1.33-1.33c.84 1.29 1.42 2.73 1.68 4.24.01.05.03.08.05.13.02.05.03.11.06.16.03.07.08.12.12.18.03.04.06.08.09.11.07.07.16.12.25.16.02.01.03.03.06.04C27.98 16.86 29 18.36 29 20c0 .72-.19 1.4-.54 2H3.93c-.6-1.43-.93-2.94-.93-4.5C3 11.16 8.16 6 14.5 6z" id="Musik_icon" fill="#2c6e49" class="fill-000000"></path></svg>