<svg xmlns="http://www.w3.org/2000/svg" viewBox="0 0 512 512" xml:space="preserve" enable-background="new 0 0 512 512"><path d="m111.699 315.443 28.289 28.289c3.906 3.904 10.241 3.904 14.145-.002 10.853-10.859 16.66-24.88 17.436-39.127l3.769 3.769c3.906 3.904 10.236 3.905 14.142.001l35.36-35.35c3.906-3.904 3.903-10.239.001-14.144l-7.067-7.067c21.654-3.083 39.258-20.162 42.428-42.425l7.066 7.065c3.898 3.896 10.236 3.906 14.144-.003 10.834-10.84 16.638-24.878 17.411-39.145l3.794 3.795c3.889 3.889 10.226 3.917 14.144.001l35.359-35.359c3.905-3.905 3.905-10.237 0-14.143l-7.073-7.073c24.281-3.434 42.926-24.274 42.926-49.496 0-10.458-3.207-20.156-8.686-28.177l28.772-28.772c3.905-3.905 3.905-10.237 0-14.143-3.906-3.904-10.236-3.904-14.143 0L364.933 32.92c-19.271-12.359-45.276-10.295-62.317 6.757-7.962 7.962-12.677 17.929-14.15 28.268l-7.058-7.058c-3.905-3.903-10.234-3.905-14.142-.001l-35.359 35.35c-3.905 3.905-3.906 10.236-.002 14.143l3.805 3.806c-14.219.759-28.258 6.506-39.165 17.413-3.904 3.906-3.903 10.24 0 14.143l7.073 7.072c-21.97 3.107-39.315 20.465-42.42 42.426l-7.07-7.07c-3.905-3.902-10.234-3.905-14.142-.001l-35.36 35.35c-3.906 3.904-3.903 10.239-.001 14.144l3.73 3.73c-14.219.79-28.211 6.614-39.082 17.49-3.903 3.906-3.902 10.236.002 14.141l28.278 28.278L61.3 337.554c-15.332-9.036-35.443-6.977-48.596 6.176-15.597 15.597-15.597 40.976 0 56.572 15.594 15.594 40.969 15.593 56.563 0 13.156-13.156 15.214-33.271 6.176-48.606l36.256-36.253zM316.763 53.82c11.728-11.736 30.705-11.728 42.425.002 11.725 11.725 11.723 30.694 0 42.417l-.002.003c-11.728 11.736-30.704 11.726-42.425-.003-11.729-11.729-11.719-30.698.002-42.419zm-49.681 91.745c13.376 13.229 15.345 33.472 6.354 48.773l-54.776-54.77c15.255-8.969 35.282-6.982 48.422 5.997zm-77.6 35.534c11.725-11.733 30.702-11.73 42.424 0l.002.002c11.725 11.725 11.723 30.695 0 42.418-11.725 11.725-30.704 11.723-42.427.001l-.002-.002c-11.728-11.729-11.717-30.698.003-42.419zm-49.496 91.921c13.148 13.154 15.207 33.268 6.176 48.602l-54.786-54.787c14.971-8.867 35.154-7.273 48.61 6.185zM55.128 386.159c-7.795 7.797-20.482 7.797-28.277 0-7.799-7.799-7.799-20.488 0-28.287 7.795-7.797 20.483-7.796 28.277 0 7.799 7.799 7.799 20.488 0 28.287zM508.061 103.939c-3.906-3.904-10.236-3.904-14.143 0l-28.773 28.772a49.79 49.79 0 0 0-28.177-8.686c-25.237 0-46.062 18.659-49.495 42.926l-7.073-7.073c-3.906-3.904-10.236-3.904-14.143 0l-35.359 35.359c-3.905 3.907-3.903 10.24.001 14.144l3.802 3.802c-14.224.763-28.261 6.518-39.152 17.403-3.898 3.896-3.913 10.231-.003 14.144l7.065 7.066c-21.611 3.078-39.249 20.122-42.426 42.428l-7.066-7.066c-3.906-3.904-10.242-3.903-14.144.001l-35.35 35.36c-3.904 3.905-3.903 10.236.001 14.142l3.768 3.768c-14.247.777-28.268 6.584-39.126 17.438-3.906 3.903-3.906 10.239-.002 14.145l28.289 28.289-36.253 36.253c-15.334-9.038-35.449-6.979-48.605 6.176-15.594 15.595-15.594 40.968 0 56.563 15.598 15.596 40.974 15.597 56.572 0 13.153-13.154 15.211-33.264 6.176-48.596l36.253-36.253 28.278 28.278c3.907 3.905 12.188 1.953 14.141.002 10.879-10.874 16.701-24.865 17.49-39.082l3.73 3.73c3.906 3.904 10.241 3.903 14.144-.001l35.35-35.36c3.904-3.905 3.903-10.236-.001-14.142l-7.057-7.057c21.792-3.106 39.27-20.297 42.426-42.42l7.059 7.06c3.903 3.903 10.239 3.904 14.143 0 10.844-10.844 16.651-24.886 17.422-39.156l3.797 3.796c3.907 3.905 10.238 3.902 14.143-.002l35.35-35.359c3.904-3.905 3.903-10.236-.001-14.142l-7.057-7.058c23.832-3.397 42.919-23.858 42.919-49.507a49.77 49.77 0 0 0-7.893-26.961l28.982-28.982c3.903-3.905 3.903-10.237-.002-14.142zm-353.933 381.21c-7.799 7.799-20.488 7.799-28.287 0-7.797-7.796-7.797-20.481 0-28.277 7.799-7.799 20.487-7.8 28.287 0 7.797 7.796 7.797 20.481 0 28.277zm91.037-64.525-54.787-54.786c15.332-9.033 35.446-6.975 48.6 6.174 13.435 13.433 15.074 33.606 6.187 48.612zm85.733-98.105c-11.725 11.725-30.694 11.722-42.417.001l-.002-.002c-11.724-11.725-11.721-30.704.001-42.427 11.725-11.725 30.696-11.723 42.418 0l.002.002c11.738 11.729 11.727 30.706-.002 42.426zm41.533-29.179-54.77-54.776c15.307-8.997 35.552-7.014 48.773 6.354 12.98 13.14 14.967 33.169 5.997 48.422zm64.538-89.315c-12.972 0-21.344-8.955-21.445-9.023-11.235-11.483-11.444-29.803-.416-41.528 11.512-12.239 30.998-12.732 43.073-.66 18.924 18.912 5.301 51.211-21.212 51.211z" fill="#2c6e49" class="fill-000000"></path></svg>