<svg viewBox="0 0 32 32" xml:space="preserve" xmlns="http://www.w3.org/2000/svg" enable-background="new 0 0 32 32"><path d="M29.1 22.8c-.9-.9-2.3-1.1-3.4-.6l-5.1-5c.9-2 .8-4.3-.3-5.9L15.1 4c-.8-1.2-2.1-1.9-3.7-2-2-.2-4 .7-5.6 2.2L4.3 5.9C2.7 7.4 1.9 9.3 2 11.2c.1 1.5.7 2.8 1.8 3.7l6.8 5.7c.9.8 2.1 1.1 3.3 1.1 1.1 0 2.2-.3 3.3-.9l4.9 4.9c-.5 1.1-.3 2.5.6 3.4.6.6 1.3.9 2.1.9s1.5-.3 2.1-.9c.4-.4.6-.8.8-1.4.5-.1 1-.4 1.3-.8.6-.6.9-1.3.9-2.1.1-.7-.2-1.5-.8-2zM11.9 19 5 13.4c-.8-.7-1-1.6-1-2.2-.1-1.4.6-2.8 1.7-3.9l1.6-1.6C8.3 4.6 9.7 4 11 4h.3c.7.1 1.6.3 2.2 1.2l5.3 7.3c.8 1.1.8 2.8-.1 4.4-.2.4-.6.8-.9 1.2-.3.3-.5.5-.8.7-1.9 1.1-3.9 1.2-5.1.2zm15.8 6.6c-.3.3-.6.3-.8.3-.3 0-.6.1-.8.3s-.3.5-.3.8c0 .2 0 .5-.3.8-.2.2-.4.3-.7.3-.3 0-.5-.1-.7-.3-.4-.4-.4-1 0-1.4.4-.4.4-1 0-1.4l-5.3-5.3.2-.2c.2-.2.4-.4.5-.6l5.3 5.3c.4.4 1 .4 1.4 0 .4-.4 1-.4 1.4 0 .2.2.3.4.3.7.1.2 0 .5-.2.7z" fill="#2c6e49" class="fill-000000"></path></svg>